# xmcd
#
# Track frame offsets: 
#        150
#        18268
#        36658
#        58037
#        80461
#        93393
#        112546
#        129881
#        146057
#        164467
#        185414
#        208763
#
# Disc length: 2954 seconds
#
# Revision: 2
# Processed by: cddbd v1.5.2PL0 Copyright (c) Steve Scherf et al.
# Submitted via: ExactAudioCopy v1.2
#
DISCID=9e0b880c
DTITLE=Myles Goodwyn - Myles Goodwyn And Friends Of The Blues
DYEAR=2018
DGENRE=Blues
TTITLE0=feat. Garret Mason
TTITLE1=Isn't That So (feat Sonja Ball)
TTITLE2=It'll Take Time To Get UsedTo (feat. Amos Garret and Emily Lam
TTITLE2=arche)
TTITLE3=Tell Me Where I've Been (So I Don't Go There Anymore) ((feat. 
TTITLE3=Kenny Wayne and Steve Segal))
TTITLE4=Ain't Gonna Bath In The Kitchen Anymore ( feat. Bill Stevenson
TTITLE4=)
TTITLE5=I'll Hate You (Till Death Do Us Part) (feat. Kenny Wayne and F
TTITLE5=rank Marino)
TTITLE6=Good Man In A Bad Place (feat. Garret Mason)
TTITLE7=Brand New Cardboard Belt (feat. Steve Segal and Frank Marino)
TTITLE8=Weeping Willow Tree Blues (feat. David Wilcox)
TTITLE9=Last Time I'll Ever Sing The Blues (feat. Rick Derringer)
TTITLE10=Nobody Lies (About Having The Blues) (feat. Jack De Keyser)
TTITLE11=You Never Got The Best Of Me (feat. Steve Segal with Amos Gar
TTITLE11=ret and Dewey Reeds)
EXTD=
EXTT0=
EXTT1=
EXTT2=
EXTT3=
EXTT4=
EXTT5=
EXTT6=
EXTT7=
EXTT8=
EXTT9=
EXTT10=
EXTT11=
PLAYORDER=
